                    <svg id="profile-photo" width="10vw" height="10vh" viewBox="0 0 36 35"  xmlns="http://www.w3.org/2000/svg" style="filter:none; margin: 0; padding: 0;">
                      <path d="M17.9866 1.70674C22.1866 1.70674 25.5999 5.12002 25.5999 9.32002C25.5999 13.52 22.1866 16.9334 17.9866 16.9334C13.8 16.9334 10.3866 13.52 10.3866 9.32002C10.3866 5.12002 13.8 1.70674 17.9866 1.70674ZM17.9866 18.6001C23.1066 18.6001 27.2666 14.44 27.2666 9.32002C27.2666 4.20002 23.1066 0.0400727 17.9866 0.0400727C12.88 0.0400727 8.71997 4.20002 8.71997 9.32002C8.71997 14.44 12.88 18.6001 17.9866 18.6001Z" fill="rgb(188, 177, 160)"/>
                      <path d="M2.8931 33.12C4.27977 27.4933 10.5599 23.3599 17.9866 23.3599C25.4133 23.3599 31.7064 27.4933 33.0931 33.12H2.8931ZM34.9199 33.8266C33.9333 26.9066 26.6533 21.6933 17.9866 21.6933C9.33325 21.6933 2.05326 26.9066 1.05326 33.8266L0.919922 34.7866H35.0533L34.9199 33.8266Z" fill="rgb(188, 177, 160)"/>
                    </svg>